# xmcd
#
# Track frame offsets: 
#        150
#        19550
#        40257
#        54573
#        80813
#        101219
#        121562
#        142708
#        160484
#        188086
#
# Disc length: 2760 seconds
#
# Revision: 0
# Processed by: cddbd v1.5.1PL2 Copyright (c) Steve Scherf et al.
# Submitted via: ExactAudioCopy v0.95b4
#
DISCID=7a0ac60a
DTITLE=Bright Eyes - I'm Wide Awake, It's Morning
DYEAR=2005
DGENRE=Country
TTITLE0=Another Travelin' Song
TTITLE1=At the Bottom of Everything
TTITLE2=First Day of My Life
TTITLE3=Landlocked Blues
TTITLE4=Lua
TTITLE5=Old Soul Song (For the New World Order)
TTITLE6=Poison Oak
TTITLE7=Road to Joy
TTITLE8=Train Under Water
TTITLE9=We Are Nowhere And It's Now
EXTD=
EXTT0=
EXTT1=
EXTT2=
EXTT3=
EXTT4=
EXTT5=
EXTT6=
EXTT7=
EXTT8=
EXTT9=
PLAYORDER=
